{
	"asset":{
		"version":"2.0",
		"generator":"Created using the official Cinema 4D glTF Exporter 1.000x290161"
	},
	"scenes":[{
		"nodes":[0]
	}],
	"nodes":[{
		"name":"Würfel",
		"mesh":0
	}],
	"meshes":[{
		"primitives":[{
			"attributes":{
				"POSITION":1,
				"NORMAL":2,
				"TEXCOORD_0":3
			},
			"indices":0,
			"material":0
		}]
	}],
	"accessors":[{
		"bufferView":0,
		"type":"SCALAR",
		"componentType":5123,
		"count":9216,
		"byteOffset":0,
		"min":[0],
		"max":[3609]
	},
	{
		"bufferView":1,
		"type":"VEC3",
		"componentType":5126,
		"count":3610,
		"byteOffset":0,
		"min":[-559.532958984375,
		-357.38177490234377,
		-670.969482421875],
		"max":[670.3977661132813,
		560.712890625,
		584.334228515625]
	},
	{
		"bufferView":1,
		"type":"VEC3",
		"componentType":5126,
		"count":3610,
		"byteOffset":12,
		"min":[-0.9993125200271606,
		-0.998468816280365,
		-0.999750018119812],
		"max":[0.9979375600814819,
		0.9995312690734863,
		0.999750018119812]
	},
	{
		"bufferView":1,
		"type":"VEC2",
		"componentType":5126,
		"count":3610,
		"byteOffset":24,
		"min":[0.01167546957731247,
		0.007783651351928711],
		"max":[0.9883245229721069,
		0.9922163486480713]
	}],
	"bufferViews":[{
		"buffer":0,
		"byteOffset":0,
		"byteLength":18432,
		"target":34963
	},
	{
		"buffer":0,
		"byteOffset":18432,
		"byteLength":115520,
		"target":34962,
		"byteStride":32
	}],
	"buffers":[{
		"uri":"data:application/octet-stream;base64,",
		"byteLength":133952
	}],
	"images":[{
		"uri":"data:image/jpeg;base64,"
	}],
	"samplers":[{
		"magFilter":9729,
		"minFilter":9729,
		"wrapS":10497,
		"wrapT":10497
	}],
	"textures":[{
		"sampler":0,
		"source":0
	}],
	"materials":[{
		"name":"Mat",
		"pbrMetallicRoughness":{
			"baseColorTexture":{
				"index":0
			},
			"baseColorFactor":[1.0,
			1.0,
			1.0,
			1.0],
			"metallicFactor":0.0,
			"roughnessFactor":0.5
		},
		"emissiveFactor":[0.0,
		0.0,
		0.0],
		"alphaMode":"OPAQUE",
		"doubleSided":false
	}]
}