{
	"asset":{
		"version":"2.0",
		"generator":"Created using the official Cinema 4D glTF Exporter 1.000x290161"
	},
	"scenes":[{
		"nodes":[0]
	}],
	"nodes":[{
		"name":"gamms",
		"mesh":0
	}],
	"meshes":[{
		"primitives":[{
			"attributes":{
				"POSITION":1,
				"NORMAL":2,
				"TEXCOORD_0":3
			},
			"indices":0,
			"material":0
		}]
	}],
	"accessors":[{
		"bufferView":0,
		"type":"SCALAR",
		"componentType":5123,
		"count":9216,
		"byteOffset":0,
		"min":[0],
		"max":[3526]
	},
	{
		"bufferView":1,
		"type":"VEC3",
		"componentType":5126,
		"count":3527,
		"byteOffset":0,
		"min":[-548.6439208984375,
		-489.4085693359375,
		-528.7750244140625],
		"max":[675.2105102539063,
		356.3369445800781,
		521.3499755859375]
	},
	{
		"bufferView":1,
		"type":"VEC3",
		"componentType":5126,
		"count":3527,
		"byteOffset":12,
		"min":[-0.9991875290870667,
		-1.0,
		-0.999625027179718],
		"max":[0.9987813234329224,
		0.999093770980835,
		0.9994688034057617]
	},
	{
		"bufferView":1,
		"type":"VEC2",
		"componentType":5126,
		"count":3527,
		"byteOffset":24,
		"min":[0.01167546957731247,
		0.007783651351928711],
		"max":[0.9883245229721069,
		0.9922163486480713]
	}],
	"bufferViews":[{
		"buffer":0,
		"byteOffset":0,
		"byteLength":18432,
		"target":34963
	},
	{
		"buffer":0,
		"byteOffset":18432,
		"byteLength":112864,
		"target":34962,
		"byteStride":32
	}],
	"buffers":[{
		"uri":"data:application/octet-stream;base64,",
		"byteLength":131296
	}],
	"images":[{
		"uri":"data:image/jpeg;base64,"
	}],
	"samplers":[{
		"magFilter":9729,
		"minFilter":9729,
		"wrapS":10497,
		"wrapT":10497
	}],
	"textures":[{
		"sampler":0,
		"source":0
	}],
	"materials":[{
		"name":"Mat.1",
		"pbrMetallicRoughness":{
			"baseColorTexture":{
				"index":0
			},
			"baseColorFactor":[1.0,
			1.0,
			1.0,
			1.0],
			"metallicFactor":0.0,
			"roughnessFactor":0.5
		},
		"emissiveFactor":[0.0,
		0.0,
		0.0],
		"alphaMode":"OPAQUE",
		"doubleSided":false
	}]
}