{
	"asset":{
		"version":"2.0",
		"generator":"HYPERPAINTING"
	},
	"scenes":[{
		"nodes":[0]
	}],
	"nodes":[{
		"name":"bets",
		"mesh":0
	}],
	"meshes":[{
		"primitives":[{
			"attributes":{
				"POSITION":1,
				"NORMAL":2,
				"TEXCOORD_0":3
			},
			"indices":0,
			"material":0
		}]
	}],
	"accessors":[{
		"bufferView":0,
		"type":"SCALAR",
		"componentType":5123,
		"count":9216,
		"byteOffset":0,
		"min":[0],
		"max":[3161]
	},
	{
		"bufferView":1,
		"type":"VEC3",
		"componentType":5126,
		"count":3162,
		"byteOffset":0,
		"min":[-669.2528686523438,
		-492.67877197265627,
		-551.3662719726563],
		"max":[518.8388671875,
		455.9904479980469,
		676.9864501953125]
	},
	{
		"bufferView":1,
		"type":"VEC3",
		"componentType":5126,
		"count":3162,
		"byteOffset":12,
		"min":[-0.9994062781333923,
		-0.9983750581741333,
		-0.998468816280365],
		"max":[0.995093822479248,
		0.999250054359436,
		0.9984375238418579]
	},
	{
		"bufferView":1,
		"type":"VEC2",
		"componentType":5126,
		"count":3162,
		"byteOffset":24,
		"min":[0.0,
		0.0],
		"max":[1.0,
		1.0]
	}],
	"bufferViews":[{
		"buffer":0,
		"byteOffset":0,
		"byteLength":18432,
		"target":34963
	},
	{
		"buffer":0,
		"byteOffset":18432,
		"byteLength":101184,
		"target":34962,
		"byteStride":32
	}],
	"buffers":[{
		"uri":"data:application/octet-stream;base64,",
		"byteLength":119616
	}],
	"images":[{
		"uri":"data:image/jpeg;base64,"
	}],
	"samplers":[{
		"magFilter":9729,
		"minFilter":9729,
		"wrapS":10497,
		"wrapT":10497
	}],
	"textures":[{
		"sampler":0,
		"source":0
	}],
	"materials":[{
		"name":"cube.1",
		"pbrMetallicRoughness":{
			"baseColorTexture":{
				"index":0
			},
			"baseColorFactor":[1.0,
			1.0,
			1.0,
			1.0]
		
		},
		"alphaMode":"OPAQUE",
		"doubleSided":false
	}]
}
